HIERARCHY
ROOT reference
{
  OFFSET 0 0 0
  CHANNELS 6 Xposition Yposition Zposition Zrotation Xrotation Yrotation
  JOINT Hips
  {
    OFFSET 0 97.8064 0
    CHANNELS 6 Xposition Yposition Zposition Zrotation Xrotation Yrotation
    JOINT ToSpine
    {
      OFFSET -2.69724 7.43032 -0.144315
      CHANNELS 6 Xposition Yposition Zposition Zrotation Xrotation Yrotation
      JOINT Spine
      {
        OFFSET -0.0310711 10.7595 1.96963
        CHANNELS 6 Xposition Yposition Zposition Zrotation Xrotation Yrotation
        JOINT Spine1
        {
          OFFSET 13.1342 3.43533 0.764692
          CHANNELS 6 Xposition Yposition Zposition Zrotation Xrotation Yrotation
          JOINT Neck
          {
            OFFSET 29.8703 7.82586 -0.130764
            CHANNELS 6 Xposition Yposition Zposition Zrotation Xrotation Yrotation
            JOINT Head
            {
              OFFSET 9.52751 0.295786 -0.907742
              CHANNELS 6 Xposition Yposition Zposition Zrotation Xrotation Yrotation
              End Site
              {
                OFFSET 16.4037 0.713936 2.7358
              }
            }
          }
          JOINT LeftShoulder
          {
            OFFSET 27.5574 4.95586 2.47156
            CHANNELS 6 Xposition Yposition Zposition Zrotation Xrotation Yrotation
            JOINT LeftArm
            {
              OFFSET 1.20734 -0.998971 20.1238
              CHANNELS 6 Xposition Yposition Zposition Zrotation Xrotation Yrotation
              JOINT LeftForeArm
              {
                OFFSET 26.8049 -0.0536703 -0.155908
                CHANNELS 6 Xposition Yposition Zposition Zrotation Xrotation Yrotation
                JOINT LeftHand
                {
                  OFFSET 26.6817 0 0.320147
                  CHANNELS 6 Xposition Yposition Zposition Zrotation Xrotation Yrotation
                  End Site
                  {
                    OFFSET 18.6119 0 0.382219
                  }
                }
              }
            }
          }
          JOINT RightShoulder
          {
            OFFSET 27.5927 4.71444 -2.65209
            CHANNELS 6 Xposition Yposition Zposition Zrotation Xrotation Yrotation
            JOINT RightArm
            {
              OFFSET 2.83739 -1.17114 -18.7564
              CHANNELS 6 Xposition Yposition Zposition Zrotation Xrotation Yrotation
              JOINT RightForeArm
              {
                OFFSET 28.839 -0.0548439 1.22491
                CHANNELS 6 Xposition Yposition Zposition Zrotation Xrotation Yrotation
                JOINT RightHand
                {
                  OFFSET 26.5114 0 -0.101894
                  CHANNELS 6 Xposition Yposition Zposition Zrotation Xrotation Yrotation
                  End Site
                  {
                    OFFSET 18.2168 0 0
                  }
                }
              }
            }
          }
        }
      }
    }
    JOINT LeftUpLeg
    {
      OFFSET -4.76168 -1.9167 -10.2353
      CHANNELS 6 Xposition Yposition Zposition Zrotation Xrotation Yrotation
      JOINT LeftLeg
      {
        OFFSET 2.55951 -42.0585 -8.02213
        CHANNELS 6 Xposition Yposition Zposition Zrotation Xrotation Yrotation
        JOINT LeftFoot
        {
          OFFSET 3.16357 -42.5282 -3.95426
          CHANNELS 6 Xposition Yposition Zposition Zrotation Xrotation Yrotation
          JOINT LeftToeBase
          {
            OFFSET 0.346054 -6.02161 12.8035
            CHANNELS 6 Xposition Yposition Zposition Zrotation Xrotation Yrotation
            End Site
            {
              OFFSET 0.134235 -1.35082 5.13018
            }
          }
        }
      }
    }
    JOINT RightUpLeg
    {
      OFFSET -4.94151 -1.41743 10.6446
      CHANNELS 6 Xposition Yposition Zposition Zrotation Xrotation Yrotation
      JOINT RightLeg
      {
        OFFSET -2.56294 -42.0364 -7.94377
        CHANNELS 6 Xposition Yposition Zposition Zrotation Xrotation Yrotation
        JOINT RightFoot
        {
          OFFSET -3.0952 -42.555 -4.02241
          CHANNELS 6 Xposition Yposition Zposition Zrotation Xrotation Yrotation
          JOINT RightToeBase
          {
            OFFSET -0.0828122 -6.13587 12.8035
            CHANNELS 6 Xposition Yposition Zposition Zrotation Xrotation Yrotation
            End Site
            {
              OFFSET -0.131328 -1.35082 5.13018
            }
          }
        }
      }
    }
  }
}
MOTION
Frames:	9
Frame Time:	0.0333333
0 0 0 0 0 -0 9.61343 84.3866 -73.2339 64.8035 -39.3336 -19.8914 -2.69724 7.43032 -0.144315 -70.1915 -3.57812e-015 88.8779 -0.0310711 10.7595 1.96963 92.4955 69.1624 -6.70763 13.1342 3.43533 0.764692 5.18224 19.5002 -1.32105 29.8703 7.82586 -0.130764 -136.851 27.1752 -179.091 9.52751 0.295786 -0.907742 176.062 64.9869 -147.348 27.5574 4.95586 2.47156 -1.8227 -25.156 -29.1259 1.20734 -0.998971 20.1238 -53.3558 0.23604 -160.702 26.8049 -0.0536703 -0.155908 19.7567 22.1166 -43.135 26.6817 -2.84217e-014 0.320147 -0.471503 0.0054922 1.55366 27.5927 4.71444 -2.65209 -3.64801 11.358 45.9108 2.83739 -1.17114 -18.7564 -60.3882 -2.07077 121.198 28.839 -0.0548439 1.22491 17.8334 -24.3495 37.9769 26.5114 2.13163e-014 -0.101894 2.96996 0.0815601 2.38614 -4.76168 -1.9167 -10.2353 -52.3185 21.8847 106.41 2.55951 -42.0585 -8.02213 -6.52862 58.675 -12.4381 3.16357 -42.5282 -3.95426 -3.16274 -21.0644 -1.98287 0.346054 -6.02161 12.8035 10.8514 -20.8709 25.4943 -4.94151 -1.41743 10.6446 -14.8356 -18.1221 91.5772 -2.56294 -42.0364 -7.94377 4.74541 59.9537 0.197133 -3.0952 -42.555 -4.02241 -4.29659 -4.31855 0.875363 -0.0828122 -6.13587 12.8035 1.95456 -7.8945 -10.7005 
0 0 0 0 0 -0 9.35261 84.4534 -71.7976 64.3299 -38.6367 -20.0032 -2.69724 7.43032 -0.144315 -70.1915 -4.17448e-015 88.8779 -0.0310711 10.7595 1.96963 92.1162 68.8728 -6.75023 13.1342 3.43533 0.764692 4.80856 19.123 -0.935902 29.8703 7.82586 -0.130764 -136.663 27.3207 -179.424 9.52751 0.295786 -0.907742 176.746 65.227 -147.352 27.5574 4.95586 2.47156 -1.38862 -24.1899 -27.3795 1.20734 -0.998971 20.1238 -56.5503 1.05918 -162.021 26.8049 -0.0536703 -0.155908 20.6356 20.1422 -47.0387 26.6817 -2.84217e-014 0.320147 -0.194516 0.00549297 1.22175 27.5927 4.71444 -2.65209 -3.62941 11.2957 45.9325 2.83739 -1.17114 -18.7564 -64.0765 -3.38554 118.953 28.839 -0.0548439 1.22491 22.8108 -21.5743 48.8199 26.5114 2.84217e-014 -0.101894 2.79676 0.0681263 2.07065 -4.76168 -1.9167 -10.2353 -52.7747 22.2947 105.927 2.55951 -42.0585 -8.02213 -6.05313 56.7976 -13.1302 3.16357 -42.5282 -3.95426 -3.47013 -19.9188 -1.86601 0.346054 -6.02161 12.8035 10.912 -20.9445 25.4517 -4.94151 -1.41743 10.6446 -14.6147 -18.3037 90.4103 -2.56294 -42.0364 -7.94377 5.12868 61.1688 0.278991 -3.0952 -42.555 -4.02241 -5.65009 -5.69657 1.04002 -0.0828122 -6.13587 12.8035 2.05527 -8.47178 -11.6553 
0 0 0 0 0 -0 9.01767 84.8958 -69.6334 63.1182 -38.0178 -20.6104 -2.69724 7.43032 -0.144315 -70.1915 -1.43125e-014 88.8779 -0.0310711 10.7595 1.96963 93.0285 67.7726 -6.58298 13.1342 3.43533 0.764692 3.16057 18.6077 -2.66289 29.8703 7.82586 -0.130764 -135.85 26.6209 -179.459 9.52751 0.295786 -0.907742 177.531 64.5233 -147.286 27.5574 4.95586 2.47156 -0.594541 -21.8027 -23.8348 1.20734 -0.998971 20.1238 -59.672 3.02333 -163.293 26.8049 -0.0536703 -0.155908 19.3923 15.6625 -51.9967 26.6817 -2.84217e-014 0.320147 0.110578 0.00549341 0.984729 27.5927 4.71444 -2.65209 -3.81355 11.2372 47.6734 2.83739 -1.17114 -18.7564 -66.4411 -2.26516 117.578 28.839 -0.0548439 1.22491 22.6231 -14.6078 58.791 26.5114 2.84217e-014 -0.101894 2.28528 0.0534196 1.92346 -4.76168 -1.9167 -10.2353 -53.6806 22.8314 105.875 2.55951 -42.0585 -8.02213 -5.23415 53.2986 -13.0017 3.16357 -42.5282 -3.95426 -4.73947 -18.172 -1.70658 0.346054 -6.02161 12.8035 10.549 -20.5791 23.9263 -4.94151 -1.41743 10.6446 -14.7288 -17.9339 88.9834 -2.56294 -42.0364 -7.94377 5.30207 61.626 0.41997 -3.0952 -42.555 -4.02241 -6.50989 -7.3001 1.14805 -0.0828122 -6.13587 12.8035 2.04802 -9.18982 -11.3569 
0 0 0 0 0 -0 8.75155 85.7034 -66.7368 63.0057 -37.9868 -19.6889 -2.69724 7.43032 -0.144315 -70.1915 -6.75868e-015 88.8779 -0.0310711 10.7595 1.96963 94.563 67.4909 -7.81014 13.1342 3.43533 0.764692 2.21215 18.2786 -1.75488 29.8703 7.82586 -0.130764 -135.074 26.524 -179.347 9.52751 0.295786 -0.907742 178.432 64.4108 -147.071 27.5574 4.95586 2.47156 -0.178551 -20.1396 -21.9276 1.20734 -0.998971 20.1238 -64.0302 4.90064 -164.049 26.8049 -0.0536703 -0.155908 17.1612 10.6927 -58.4851 26.6817 -1.42109e-014 0.320147 0.324635 0.00549352 0.918077 27.5927 4.71444 -2.65209 -3.7404 11.3254 46.7795 2.83739 -1.17114 -18.7564 -69.538 -2.03947 116.831 28.839 -0.0548439 1.22491 18.618 -7.49757 68.7985 26.5114 4.26326e-014 -0.101894 1.78882 0.0405188 1.77743 -4.76168 -1.9167 -10.2353 -56.0622 23.7612 104.756 2.55951 -42.0585 -8.02213 -4.0108 48.469 -9.97159 3.16357 -42.5282 -3.95426 -5.62101 -14.4063 -1.22384 0.346054 -6.02161 12.8035 10.0498 -20.0582 20.8324 -4.94151 -1.41743 10.6446 -17.1065 -16.1646 87.2383 -2.56294 -42.0364 -7.94377 4.9788 61.2311 -0.549506 -3.0952 -42.555 -4.02241 -5.16454 -9.50405 1.13038 -0.0828122 -6.13587 12.8035 1.74984 -8.29465 -8.32534 
0 0 0 0 0 -0 8.41659 86.6954 -63.2021 63.0698 -37.5126 -18.3063 -2.69724 7.43032 -0.144315 -70.1915 -9.93923e-016 88.8779 -0.0310711 10.7595 1.96963 92.4997 67.7088 -6.79127 13.1342 3.43533 0.764692 2.07443 17.6994 0.965579 29.8703 7.82586 -0.130764 -133.748 26.9491 179.588 9.52751 0.295786 -0.907742 179.245 65.0357 -147.171 27.5574 4.95586 2.47156 0.0470922 -19.1437 -20.6907 1.20734 -0.998971 20.1238 -68.8181 7.06826 -164.585 26.8049 -0.0536703 -0.155908 15.5174 7.31871 -64.8244 26.6817 -1.42109e-014 0.320147 0.600722 0.00549295 1.23482 27.5927 4.71444 -2.65209 -3.44281 11.5404 43.6494 2.83739 -1.17114 -18.7564 -75.3085 -4.34126 117.589 28.839 -0.0548439 1.22491 17.5868 -4.0358 77.4232 26.5114 2.84217e-014 -0.101894 1.48107 0.0286646 1.44511 -4.76168 -1.9167 -10.2353 -57.4047 24.465 101.913 2.55951 -42.0585 -8.02213 -2.76844 44.5325 -4.49538 3.16357 -42.5282 -3.95426 -6.72288 -8.68665 -0.420302 0.346054 -6.02161 12.8035 8.67191 -18.2266 18.824 -4.94151 -1.41743 10.6446 -19.9196 -13.4494 85.6688 -2.56294 -42.0364 -7.94377 4.40822 60.537 -2.26403 -3.0952 -42.555 -4.02241 -3.94408 -11.5817 1.16119 -0.0828122 -6.13587 12.8035 1.64389 -7.31415 -7.73636 
0 0 0 0 0 -0 7.83151 87.7719 -59.4532 63.1441 -35.8588 -16.7634 -2.69724 7.43032 -0.144315 -70.1915 -2.18663e-015 88.8779 -0.0310711 10.7595 1.96963 87.0878 68.2088 -3.34719 13.1342 3.43533 0.764692 2.90477 17.2397 3.87877 29.8703 7.82586 -0.130764 -131.97 27.5872 176.305 9.52751 0.295786 -0.907742 179.497 66.2978 -147.303 27.5574 4.95586 2.47156 0.19238 -18.7129 -19.497 1.20734 -0.998971 20.1238 -73.4475 9.07734 -166.381 26.8049 -0.0536703 -0.155908 13.9377 5.2133 -69.3528 26.6817 -2.84217e-014 0.320147 1.04486 0.0054927 1.34832 27.5927 4.71444 -2.65209 -2.94597 11.5382 39.3215 2.83739 -1.17114 -18.7564 -82.9391 -8.5057 117.873 28.839 -0.0548439 1.22491 18.5329 -1.79266 84.3722 26.5114 4.26326e-014 -0.101894 1.22403 0.0204904 1.18679 -4.76168 -1.9167 -10.2353 -54.8669 25.3611 98.8564 2.55951 -42.0585 -8.02213 -1.5365 44.9267 3.88371 3.16357 -42.5282 -3.95426 -6.71524 -3.09469 0.351336 0.346054 -6.02161 12.8035 3.96869 -11.5592 17.4652 -4.94151 -1.41743 10.6446 -22.5209 -11.3562 83.2457 -2.56294 -42.0364 -7.94377 3.72286 59.4485 -4.20032 -3.0952 -42.555 -4.02241 -3.88909 -13.5906 1.25319 -0.0828122 -6.13587 12.8035 1.54347 -6.33337 -7.30833 
0 0 0 0 0 -0 7.22586 89.0585 -55.923 64.0262 -33.6124 -14.7034 -2.69724 7.43032 -0.144315 -70.1915 -4.96962e-015 88.8779 -0.0310711 10.7595 1.96963 86.3762 68.5014 -3.42714 13.1342 3.43533 0.764692 2.70548 17.1785 4.91185 29.8703 7.82586 -0.130764 -129.729 28.1396 171.055 9.52751 0.295786 -0.907742 -177.311 68.2468 -150.514 27.5574 4.95586 2.47156 0.427362 -17.9217 -17.2483 1.20734 -0.998971 20.1238 -76.7137 11.4678 -168.992 26.8049 -0.0536703 -0.155908 11.9238 3.7694 -72.1694 26.6817 -2.84217e-014 0.320147 1.58312 0.00549283 1.292 27.5927 4.71444 -2.65209 -2.51283 11.2971 35.9475 2.83739 -1.17114 -18.7564 -91.5092 -11.195 115.714 28.839 -0.0548439 1.22491 19.649 -0.0372986 89.8827 26.5114 4.26326e-014 -0.101894 0.934826 0.014635 1.04058 -4.76168 -1.9167 -10.2353 -49.8725 25.7647 97.6538 2.55951 -42.0585 -8.02213 -1.71603 49.5229 7.99257 3.16357 -42.5282 -3.95426 -5.45604 -3.42544 0.196624 0.346054 -6.02161 12.8035 -0.00388084 -4.72115 14.0644 -4.94151 -1.41743 10.6446 -26.028 -9.92914 80.3063 -2.56294 -42.0364 -7.94377 3.0845 57.3718 -5.16314 -3.0952 -42.555 -4.02241 -3.89549 -14.8579 1.31035 -0.0828122 -6.13587 12.8035 1.52653 -5.02172 -7.7893 
0 0 0 0 0 -0 6.81259 90.5616 -52.6718 65.8573 -31.6321 -12.7299 -2.69724 7.43032 -0.144315 -70.1915 -1.00883e-014 88.8779 -0.0310711 10.7595 1.96963 91.4428 68.8988 -8.14693 13.1342 3.43533 0.764692 1.13245 17.8172 4.03295 29.8703 7.82586 -0.130764 -125.881 28.4893 165.534 9.52751 0.295786 -0.907742 -174.633 70.1811 -152.066 27.5574 4.95586 2.47156 0.532434 -17.5986 -16.0719 1.20734 -0.998971 20.1238 -78.7647 14.6973 -170.682 26.8049 -0.0536703 -0.155908 12.4334 3.50487 -73.9425 26.6817 0 0.320147 1.5454 0.00549226 1.53266 27.5927 4.71444 -2.65209 -2.28939 10.8061 34.9649 2.83739 -1.17114 -18.7564 -100.666 -10.8591 112.385 28.839 -0.0548439 1.22491 18.82 1.13443 93.0204 26.5114 2.84217e-014 -0.101894 0.874614 0.00989894 0.730921 -4.76168 -1.9167 -10.2353 -45.4897 24.4531 99.5606 2.55951 -42.0585 -8.02213 -3.61746 55.989 1.22636 3.16357 -42.5282 -3.95426 -3.61928 -8.19607 -0.537188 0.346054 -6.02161 12.8035 1.90404 -7.70119 13.6463 -4.94151 -1.41743 10.6446 -30.5796 -9.31025 76.993 -2.56294 -42.0364 -7.94377 2.53124 54.4515 -5.30666 -3.0952 -42.555 -4.02241 -4.34519 -14.7368 1.30546 -0.0828122 -6.13587 12.8035 1.49062 -5.44408 -7.28036 
0 0 0 0 0 -0 6.74367 92.305 -49.7019 67.54 -30.2396 -11.7202 -2.69724 7.43032 -0.144315 -70.1915 2.48481e-016 88.8779 -0.0310711 10.7595 1.96963 93.5809 69.7469 -11.3966 13.1342 3.43533 0.764692 0.386138 18.4517 4.78247 29.8703 7.82586 -0.130764 -122.621 29.36 162.226 9.52751 0.295786 -0.907742 -176.966 71.996 -149.275 27.5574 4.95586 2.47156 0.516195 -17.3695 -16.5929 1.20734 -0.998971 20.1238 -79.1981 17.3218 -170.916 26.8049 -0.0536703 -0.155908 13.848 3.28502 -76.3195 26.6817 -5.68434e-014 0.320147 1.23891 0.00549094 1.97936 27.5927 4.71444 -2.65209 -2.06642 10.541 33.3532 2.83739 -1.17114 -18.7564 -109.249 -9.67083 108.865 28.839 -0.0548439 1.22491 18.4606 1.35665 93.6733 26.5114 2.84217e-014 -0.101894 0.977016 0.00506991 0.305432 -4.76168 -1.9167 -10.2353 -42.7785 21.742 104.178 2.55951 -42.0585 -8.02213 -5.6617 60.04 -4.52018 3.16357 -42.5282 -3.95426 -4.11423 -13.0148 -1.06623 0.346054 -6.02161 12.8035 2.83944 -9.61363 15.4657 -4.94151 -1.41743 10.6446 -34.8866 -9.48413 74.4032 -2.56294 -42.0364 -7.94377 2.20414 51.5314 -4.50772 -3.0952 -42.555 -4.02241 -3.48462 -12.5307 1.19579 -0.0828122 -6.13587 12.8035 1.08055 -7.13039 -2.28092 
